<?xml version="1.0" encoding="UTF-8"?>
<!DOCTYPE svg PUBLIC "-//W3C//DTD SVG 1.1//EN" "http://www.w3.org/Graphics/SVG/1.1/DTD/svg11.dtd">
<!-- Creator: CorelDRAW X8 -->
<svg xmlns="http://www.w3.org/2000/svg" xml:space="preserve" width="297mm" height="210mm" version="1.1" style="shape-rendering:geometricPrecision; text-rendering:geometricPrecision; image-rendering:optimizeQuality; fill-rule:evenodd; clip-rule:evenodd"
viewBox="0 0 29700 21000"
 xmlns:xlink="http://www.w3.org/1999/xlink">
 <defs>
  <style type="text/css">
   <![CDATA[
    .fil2 {fill:#6F4F75}
    .fil0 {fill:#7F5D86}
    .fil1 {fill:#B993BF}
   ]]>
  </style>
 </defs>
 <g id="Camada_x0020_1">
  <metadata id="CorelCorpID_0Corel-Layer"/>
  <path class="fil0" d="M12124 6703l34 58c294,6 2340,1171 2823,1373 193,58 382,220 556,269 155,44 611,23 799,22 568,0 1138,9 1705,-7 0,-566 25,-1134 -35,-1692l-158 -73c-96,25 -191,110 -312,162l-2425 1228 4 -2741 -190 -118 -2748 1369 26 -2790c-166,68 -94,208 -94,659l15 2281z"/>
  <path class="fil1" d="M15126 14095c73,122 2544,1366 2811,1420l-13 -2934 -2563 -1278 -220 32c-149,194 -94,1388 -45,1671 330,-125 483,-364 777,-255l32 89c-143,286 -159,239 -420,404 -257,162 -109,273 -410,394 -5,376 -36,195 136,426l-85 31z"/>
  <path class="fil1" d="M12203 12626c190,159 2549,1331 2729,1350 -38,-346 -38,-2318 24,-2611 -166,17 -285,94 -452,192l-820 487c-134,75 -245,141 -376,217l-291 -148c-9,-26 -28,-27 -41,-41 254,-163 613,-320 890,-459 147,-73 290,-144 437,-218 472,-237 309,-166 370,-118l-2521 -5c0,254 0,507 0,761 0,89 -12,317 1,390 20,125 80,106 50,203z"/>
  <path class="fil0" d="M17848 6653c-85,-105 -2564,-1331 -2733,-1351l-4 2741 2425 -1228c121,-52 216,-137 312,-162z"/>
  <path class="fil0" d="M14925 5184c-131,-201 -2328,-1108 -2722,-1421l-26 2790 2748 -1369z"/>
  <path class="fil1" d="M12152 8413c382,53 1094,12 1512,12 457,0 996,75 1317,-291 -483,-202 -2529,-1367 -2823,-1373l-6 1652z"/>
  <path class="fil0" d="M18041 8418c327,27 2216,38 2434,-40 140,-292 286,-111 246,-271l-2715 -1381c60,558 35,1126 35,1692z"/>
  <path class="fil1" d="M11371 8428c52,-47 180,-110 276,-175 199,-136 144,-57 359,-93 -12,-364 -51,-1102 29,-1425l-2608 1311c-245,120 -248,93 -237,363l997 16c393,0 791,-5 1184,3z"/>
  <path class="fil0" d="M15361 11303l2563 1278 90 -36c80,-402 -33,-930 32,-1268l2474 -9 130 -66 -5272 1 -122 17 105 83z"/>
  <path class="fil0" d="M15129 13600c-93,-203 -195,-741 300,-609 72,252 69,121 -30,299 -228,80 -141,99 -258,-52 147,15 204,204 -12,362zm577 -480c-52,-5 -234,102 -277,-283 324,-153 174,-11 409,-70 -2,20 -3,30 -6,59l-126 294zm-6175 -1845l2475 2 23 1274 174 75c30,-97 -30,-78 -50,-203 -13,-73 -1,-301 -1,-390 0,-254 0,-507 0,-761l2521 5c-61,-48 102,-119 -370,118 -147,74 -290,145 -437,218 -277,139 -636,296 -890,459 13,14 32,15 41,41l291 148c131,-76 242,-142 376,-217l820 -487c167,-98 286,-175 452,-192 -62,293 -62,2265 -24,2611l194 119 85 -31c-172,-231 -141,-50 -136,-426 301,-121 153,-232 410,-394 261,-165 277,-118 420,-404l-32 -89c-294,-109 -447,130 -777,255 -49,-283 -104,-1477 45,-1671l220 -32 -105 -83 -5855 -23 130 78z"/>
  <polygon class="fil1" points="12029,12551 12006,11277 9531,11275 "/>
  <path class="fil2" d="M18014 12545l2506 -1277 -2474 9c-65,338 48,866 -32,1268z"/>
  <path class="fil1" d="M16590 10014c117,-68 321,-85 445,2 -37,125 88,121 -193,137 -333,19 -201,-58 -252,-139zm4 -400c131,-122 306,-117 445,-3 -146,119 -312,126 -445,3zm-257 794c1262,124 895,-393 920,-628 43,-411 38,-604 -912,-507l-8 1135z"/>
  <path class="fil1" d="M11661 9558c200,-35 321,-41 516,31 75,65 237,519 -523,381l7 -412zm-264 850c271,26 196,41 299,-140l540 139 -43 -178c285,-178 446,-477 209,-764 -228,-277 -673,-225 -996,-192l-9 1135z"/>
  <path class="fil1" d="M18397 9961l-143 62 -286 -19 -27 -474 310 -18 148 56 138 54 9 275 -149 64zm-687 442c409,59 125,-11 338,-133 212,10 144,-11 256,141l237 4 -36 -183c296,-174 431,-483 203,-772 -215,-272 -684,-230 -995,-183l-3 1126z"/>
  <path class="fil1" d="M20117 10420l-9 -245c-165,-14 -561,55 -650,-67 143,-124 158,-79 545,-73l6 -257 -543 -17 6 -221 653 -5 22 -228c-236,-103 -660,-58 -936,-38l-11 1142 917 9z"/>
  <path class="fil1" d="M10430 9601c120,120 129,222 185,390l-311 24 126 -414zm-540 810c261,19 187,41 339,-123 129,5 338,-17 451,26 167,65 8,149 348,83l-398 -1118 -307 -19c-125,163 -400,943 -433,1151z"/>
  <polygon class="fil1" points="12901,9515 13308,9533 13311,10420 13543,10409 13551,9555 13893,9541 13931,9269 12913,9261 "/>
  <path class="fil1" d="M14300 10411l864 7 6 -253 -579 -24c-83,-260 -27,-584 -40,-860l-238 -22 -13 1152z"/>
  <path class="fil0" d="M11371 8428l781 -15 6 -1652 -34 -58 -89 32c-80,323 -41,1061 -29,1425 -215,36 -160,-43 -359,93 -96,65 -224,128 -276,175z"/>
  <polygon class="fil1" points="15622,10410 15870,10415 15877,9274 15632,9261 "/>
  <path class="fil0" d="M15129 13600c216,-158 159,-347 12,-362 117,151 30,132 258,52 99,-178 102,-47 30,-299 -495,-132 -393,406 -300,609z"/>
  <path class="fil0" d="M15832 12826c3,-29 4,-39 6,-59 -235,59 -85,-83 -409,70 43,385 225,278 277,283l126 -294z"/>
  <path class="fil0" d="M20475 8378c172,71 191,60 386,30l6 -207 -146 -94c40,160 -106,-21 -246,271z"/>
 </g>
</svg>
